<?xml version="1.0" encoding="UTF-8" standalone="no"?>
<svg
 inkscape:version="1.1 (c68e22c387, 2021-05-23)"
 height="1080"
 width="2134.3647"
 sodipodi:docname="Logo_de_la_UAM.svg"
 xml:space="preserve"
 viewBox="0 0 2134.3647 1080"
 y="0px"
 x="0px"
 id="Capa_1"
 version="1.1"
 xmlns:inkscape="http://www.inkscape.org/namespaces/inkscape"
 xmlns:sodipodi="http://sodipodi.sourceforge.net/DTD/sodipodi-0.dtd"
 xmlns="http://www.w3.org/2000/svg"
 xmlns:svg="http://www.w3.org/2000/svg"
 xmlns:rdf="http://www.w3.org/1999/02/22-rdf-syntax-ns#"
 xmlns:cc="http://creativecommons.org/ns#"
 xmlns:dc="http://purl.org/dc/elements/1.1/"><metadata
 id="metadata89"><rdf:RDF><cc:Work
 rdf:about=""><dc:format>image/svg+xml</dc:format><dc:type
 rdf:resource="http://purl.org/dc/dcmitype/StillImage" /></cc:Work></rdf:RDF></metadata><defs
 id="defs87" /><sodipodi:namedview
 inkscape:current-layer="Capa_1"
 inkscape:window-maximized="1"
 inkscape:window-y="-8"
 inkscape:window-x="1912"
 inkscape:cy="197.65449"
 inkscape:cx="1133.488"
 inkscape:zoom="0.37186102"
 fit-margin-bottom="0"
 fit-margin-right="0"
 fit-margin-left="0"
 fit-margin-top="0"
 showgrid="false"
 id="namedview85"
 inkscape:window-height="1017"
 inkscape:window-width="1920"
 inkscape:pageshadow="2"
 inkscape:pageopacity="0"
 guidetolerance="10"
 gridtolerance="10"
 objecttolerance="10"
 borderopacity="1"
 bordercolor="#666666"
 pagecolor="#ffffff"
 inkscape:pagecheckerboard="0" />
<style
 id="style2"
 type="text/css">
	.st0{fill:#FEFEFE;}
	.st1{fill:#1A171B;}
	.st2{fill:#1A181C;}
	.st3{fill:#1B181C;}
	.st4{fill:#1D1B1F;}
	.st5{fill:#1C1A1E;}
	.st6{fill:#FDFDFD;}
	.st7{fill:#FCFCFC;}
	.st8{fill:#FCFBFC;}
</style>
<g
 transform="matrix(2.113475,0,0,2.113475,-932.16069,-584.71399)"
 id="g82">
	<g
 id="g80">
		<path
 id="path6"
 style="stroke-width:2.11348"
 class="st1"
 d="M 830.0 0 C 817.5 1.4 806.7 6.5 797.4 14.9 C 786.8 24.5 779.3 36.2 773.5 49.1 C 767.7 62.1 762.6 75.5 755.3 89.0 C 745.2 66.4 735.8 44.7 725.9 23.2 C 722.2 15.2 720.4 6.0 713.0 0.0 L 450.8 0.0 C 431.7 43.5 412.8 87.0 393.5 130.4 C 298.7 343.5 203.7 556.6 108.7 769.6 C 105.3 777.2 104.5 780.4 115.1 780.3 C 195.3 779.9 275.4 780.0 355.6 780.3 C 363.5 780.3 366.8 777.3 369.7 770.6 C 418.6 660.5 467.6 550.4 516.6 440.3 C 538.2 391.8 559.8 343.2 582.1 293.3 C 595.4 323.1 607.9 351.7 620.9 380.1 C 624.0 386.9 624.2 392.3 621.0 399.3 C 566.0 522.4 511.3 645.6 456.5 768.7 C 451.4 780.0 451.5 780.1 463.4 780.1 C 542.1 780.1 620.8 779.9 699.6 780.3 C 709.4 780.4 714.0 777.6 717.7 768.5 C 729.5 740.4 742.4 712.7 755.6 683.3 C 763.6 701.0 770.4 717.2 778.0 733.0 C 791.5 760.9 811.8 780.0 844.6 780 C 987.6 780.2 1130.6 780.1 1273.6 780.1 C 1296.1 780.1 1313.9 770.5 1328.0 753.4 C 1338.2 741.0 1343.5 726.0 1350.2 711.7 C 1354.3 702.9 1357.2 693.4 1363.6 684.3 C 1376.8 714.2 1389.6 742.7 1402.0 771.3 C 1404.8 777.7 1408.0 780.3 1415.5 780.3 C 1496.1 780.0 1576.6 780.1 1657.1 780 C 1660.1 780 1663.6 781.5 1666.2 778.2 C 1665.3 775.9 1664.3 773.6 1663.3 771.3 C 1608.3 647.6 1553.2 524.0 1497.9 400.4 C 1494.6 392.9 1494.4 386.9 1497.9 379.3 C 1509.2 355.3 1519.6 330.7 1530.6 306.5 C 1532.3 302.9 1532.7 298.1 1537.3 295.5 C 1538.9 298.9 1540.4 302.1 1541.8 305.3 C 1610.8 460.3 1679.9 615.3 1748.7 770.3 C 1751.8 777.5 1755.4 780.3 1763.6 780.3 C 1843.1 779.9 1922.5 780.1 2002.0 780.1 C 2014.2 780.1 2014.2 780.1 2009.4 769.2 C 1900.5 524.6 1791.7 280.1 1683.0 35.6 C 1677.8 23.9 1670.8 12.9 1668.5 0 L 1406.3 0 C 1401.5 2.5 1399.5 7.3 1397.5 11.9 C 1388.6 32.7 1379.3 53.3 1370.3 74.0 C 1368.4 78.4 1367.3 83.5 1362.2 86.9 C 1354.2 71.6 1349.2 55.6 1341.0 41.4 C 1329.2 21.0 1314.6 3.8 1289.3 0 L 830.0 0 z M 1059.5 116.5 C 1093.3 116.6 1117.8 133.3 1131.7 164.1 C 1164.4 236.9 1196.7 310.0 1229.4 382.9 C 1231.6 387.9 1231.6 391.9 1229.3 396.9 C 1196.7 469.8 1164.4 542.8 1131.8 615.6 C 1117.9 646.6 1092.9 661.6 1059.6 664.0 C 1027.1 661.9 1001.7 648.1 988.0 618.0 C 954.5 544.1 921.8 469.7 888.5 395.6 C 886.5 391.1 887.0 387.6 888.9 383.4 C 921.6 310.2 953.9 236.7 987.0 163.6 C 1000.8 132.9 1025.6 116.3 1059.5 116.5 z "
 transform="matrix(0.4731544,0,0,0.4731544,441.05593,276.66)" />
		<path
 id="path8"
 style="stroke-width:2.11348"
 class="st1"
 d="M 2084.8 904.7 C 2083.1 904.7 2081.3 904.8 2079.4 904.8 C 2054.6 906.0 2039.3 919.0 2034.6 943.6 C 2030.7 964.3 2030.8 985.2 2034.8 1005.8 C 2038.3 1024.1 2048.4 1036.8 2067.6 1040.0 C 2077.5 1041.7 2087.7 1041.6 2097.7 1039.8 C 2113.7 1036.9 2124.0 1027.4 2129.5 1012.3 C 2131.0 1008.0 2130.7 1003.1 2134.3 999.7 C 2134.3 981.7 2134.3 963.6 2134.4 945.6 C 2130.8 944.7 2132.2 941.4 2131.6 939.3 C 2124.4 914.9 2111.0 904.8 2084.8 904.7 z M 2082.8 928.3 C 2092.9 928.2 2096.6 935.0 2098.1 943.4 C 2101.9 963.7 2101.9 984.1 2097.9 1004.4 C 2096.3 1012.7 2091.8 1018.6 2082.8 1018.6 C 2074.3 1018.5 2070.2 1012.5 2068.3 1005.0 C 2065.6 994.4 2065.7 983.6 2065.1 969.9 C 2065.8 963.1 2066.1 953.3 2067.7 943.8 C 2069.1 935.8 2072.7 928.4 2082.8 928.3 z "
 transform="matrix(0.4731544,0,0,0.4731544,441.05593,276.66)" />
		<path
 id="path14"
 d="m 1276.3,711.9 c 11.3,-10.2 23.3,-9.2 30.0,1.7 4.2,-7.3 10.8,-9.7 18.7,-8.5 7.3,1.1 11.8,6.0 12.0,14.3 0.4,15.3 0.1,30.7 0.2,46.0 0,0.5 0.2,1.4 -0.1,1.5 -4.4,2.5 -9.1,0.7 -13.7,1.1 -3.3,0.3 -2.1,-2.5 -2.1,-4.1 -0.1,-11.9 -0.1,-23.9 -0.1,-35.8 0,-1.5 -0.1,-3.1 -0.1,-4.6 -0.2,-3.4 -1.6,-6.1 -5.3,-6.3 -3.5,-0.2 -6.2,1.3 -7.7,4.7 -0.8,2.0 -0.8,4.0 -0.8,6.0 -0.0,11.9 -0.1,23.9 0.1,35.8 0.0,3.1 -0.4,4.4 -4.1,4.4 -12.2,-0.0 -12.2,0.1 -12.2,-12.0 0,-10.4 -0.0,-20.8 0.0,-31.2 0.0,-3.9 -0.8,-7.2 -5.4,-7.9 -4.0,-0.5 -7.2,2.1 -8.2,6.8 -1.3,6.4 -0.4,12.9 -0.6,19.4 -0.1,7.2 -0.2,14.3 0.0,21.5 0.1,2.7 -0.8,3.3 -3.5,3.4 -12.3,0.3 -12.3,0.4 -12.3,-11.9 0,-15.0 0.1,-30.0 -0.1,-45.0 -0.1,-3.6 0.5,-5.5 4.6,-4.8 2,0.3 4.1,0.3 6.1,0.0 3.6,-0.4 5.6,0.5 4.6,5.5 z"
 class="st1" />
		<path
 id="path16"
 style="stroke-width:2.11348"
 class="st2"
 d="M 653.8 865.7 C 646.5 865.8 644.4 868.3 644.5 876.3 C 644.9 923.6 644.7 970.8 644.7 1018.0 C 644.7 1038.6 644.7 1038.3 665.5 1038.8 C 673.3 1038.9 679.3 1038.7 677.5 1028.0 C 704.5 1053.5 740.5 1040.5 744.8 1003.2 C 747.4 981.6 747.4 960.2 743.8 938.7 C 738.1 904.9 703.4 893.7 678.7 918.2 L 678.7 889.4 C 678.7 865.8 678.7 866.2 655.3 865.7 C 654.8 865.6 654.3 865.6 653.8 865.7 z M 695.5 930.9 C 695.7 930.9 696.0 930.9 696.3 930.9 C 704.8 931.2 709.0 936.8 710.6 944.6 C 712.5 954.1 713.5 963.8 712.9 973.5 C 713.5 983.3 712.6 992.9 710.5 1002.4 C 708.7 1010.0 704.8 1015.6 695.9 1015.6 C 687.2 1015.6 682.7 1010.3 681.2 1002.6 C 677.4 983.0 677.4 963.3 681.4 943.7 C 682.9 936.1 687.5 931.0 695.5 930.9 z "
 transform="matrix(0.4731544,0,0,0.4731544,441.05593,276.66)" />
		<path
 id="path18"
 style="stroke-width:2.11348"
 class="st1"
 d="M 1977.5 904.6 C 1973.6 904.7 1969.7 905.3 1965.6 906.6 C 1958.5 908.7 1954.2 914.5 1947.6 920.5 C 1949.9 909.6 1945.6 907.3 1937.6 908.3 C 1933.4 908.9 1928.9 908.9 1924.7 908.3 C 1916.8 907.2 1915.3 910.5 1915.3 917.8 C 1915.7 963.3 1915.5 1008.7 1915.5 1054.1 C 1915.5 1080.5 1915.5 1080.2 1941.9 1080.0 C 1949.2 1079.9 1950.1 1077.2 1949.9 1071.1 C 1949.5 1057.6 1949.8 1044.0 1949.8 1031.4 C 1952.2 1029.5 1952.7 1030.9 1953.4 1031.5 C 1976.0 1050.2 2005.4 1041.7 2013.0 1013.4 C 2020.2 986.5 2020.0 959.1 2012.8 932.2 C 2008.0 914.2 1994.0 904.2 1977.5 904.6 z M 1966.8 931.0 C 1973.9 931.1 1979.0 935.0 1980.6 942.3 C 1985.1 962.9 1985.1 983.5 1980.7 1004.1 C 1979.1 1011.2 1974.6 1015.4 1967.0 1015.5 C 1959.0 1015.7 1954.4 1011.4 1952.4 1004.0 C 1949.5 993.8 1949.7 983.4 1949.8 973.0 C 1949.7 962.9 1949.7 952.9 1952.3 943.0 C 1954.3 935.5 1959.1 931.0 1966.8 931.0 z "
 transform="matrix(0.4731544,0,0,0.4731544,441.05593,276.66)" />
		<path
 id="path20"
 d="m 441.2,727.5 c -0.2,-8.8 -0.0,-16.8 2.0,-24.6 3.1,-11.6 11.0,-17.7 23.1,-17.9 2.7,-0.0 5.5,-0.1 8.2,0.2 12.6,1.1 22.4,14.7 19.9,27.0 -0.3,1.3 -0.8,1.8 -2.0,1.8 -1.2,0.0 -2.4,0.0 -3.6,0.0 -3.4,-0.1 -7.4,0.9 -10.1,-0.5 -2.8,-1.4 -1.1,-5.9 -2.0,-8.9 -1.2,-4.3 -3.4,-7.3 -8.4,-7.4 -5.1,-0.1 -7.7,2.8 -8.6,7.2 -3.0,15.0 -3.0,30.1 -0.2,45.2 0.9,4.7 3.6,7.7 8.8,7.6 5.2,-0.1 7.5,-3.4 8.6,-7.9 0.5,-2.0 0.9,-4.0 1.0,-6.0 0.6,-6.7 0.5,-6.7 7.5,-6.7 9.9,0 10,0.0 8.8,9.7 -1.1,9.0 -3.8,17.4 -13.2,20.8 -10.0,3.6 -20.2,3.7 -29.5,-2.4 -6.3,-4.1 -8.3,-11.0 -9.5,-18.0 -1.0,-6.6 -1.3,-13.2 -1.0,-19.2 z"
 class="st2" />
		<path
 id="path22"
 style="stroke-width:2.11348"
 class="st2"
 d="M 1307.1 904.6 C 1304.9 904.6 1302.8 904.7 1300.6 904.9 C 1284.6 906.5 1270.0 910.8 1263.1 927.6 C 1255.9 945.2 1258.3 948.9 1276.7 948.9 C 1278.2 948.9 1279.6 948.7 1281.0 948.9 C 1287.6 949.9 1290.7 947.7 1291.3 940.5 C 1292.1 931.3 1298.5 927.9 1307.3 928.3 C 1315.0 928.6 1319.2 932.6 1320.3 940.0 C 1321.7 948.5 1319.3 955.1 1310.4 957.8 C 1303.5 959.8 1296.5 961.5 1289.5 963.4 C 1262.0 971.0 1252.6 985.4 1256.8 1013.7 C 1259.5 1031.8 1269.9 1040.5 1288.4 1040.9 C 1301.4 1041.2 1312.7 1038.2 1320.3 1026.7 C 1323.7 1031.1 1321.0 1038.9 1329.3 1038.7 C 1338.3 1038.5 1347.3 1038.6 1357.5 1038.6 C 1352.3 1026.0 1353.3 1013.7 1353.2 1001.5 C 1353.2 983.5 1353.3 965.5 1353.2 947.4 C 1353.1 918.1 1342.9 907.1 1313.6 904.9 C 1311.4 904.8 1309.3 904.7 1307.1 904.6 z M 1319.0 975.9 C 1320.3 975.9 1320.7 977.8 1320.7 979.3 C 1320.8 982.9 1320.7 986.5 1320.7 992.0 C 1320.6 998.0 1321.9 1006.1 1315.5 1012.5 C 1309.0 1019.0 1298.4 1020.5 1293.1 1015.6 C 1286.4 1009.2 1286.9 992.5 1294.1 985.9 C 1300.8 979.8 1310.3 980.4 1317.9 976.2 C 1318.3 976.0 1318.7 975.9 1319.0 975.9 z "
 transform="matrix(0.4731544,0,0,0.4731544,441.05593,276.66)" />
		<path
 id="path24"
 style="stroke-width:2.11348"
 class="st2"
 d="M 404.0 904.8 C 400.7 904.9 397.4 905.0 394.2 905.2 C 378.5 906.0 364.5 911.3 357.8 927.6 C 357.1 929.2 356.5 930.9 356.0 932.7 C 352.5 946.8 354.1 948.9 368.5 948.9 C 371.7 948.9 375.0 948.7 378.2 948.9 C 382.7 949.1 385.5 948.6 385.7 942.7 C 385.9 933.5 391.0 928.3 400.8 928.2 C 409.7 928.1 414.2 932.9 415.4 941.0 C 416.8 950.4 412.1 956.0 403.2 958.5 C 391.8 961.7 380.0 963.6 369.3 969.1 C 347.8 980.0 343.7 1020.1 362.7 1035.1 C 366.8 1038.3 371.4 1040.4 376.5 1040.7 C 391.2 1041.4 405.7 1041.4 415.8 1025.3 C 416.2 1037.5 422.3 1039.8 431.6 1038.8 C 437.9 1038.1 444.4 1038.6 451.8 1038.6 C 447.0 1025.6 448.4 1012.9 448.3 1000.3 C 448.2 983.0 448.5 965.7 448.2 948.4 C 448.0 938.4 448.3 927.8 441.8 919.4 C 431.8 906.6 418.0 904.6 404.0 904.8 z M 415.7 975.5 C 415.7 984.4 416.2 992.5 415.5 1000.6 C 414.6 1010.7 406.9 1017.9 397.2 1018.7 C 390.0 1019.2 385.9 1015.3 384.0 1008.7 C 380.7 997.3 384.2 987.0 393.6 982.9 C 400.4 980.0 407.7 978.1 415.7 975.5 z "
 transform="matrix(0.4731544,0,0,0.4731544,441.05593,276.66)" />
		<path
 id="path26"
 style="stroke-width:2.11348"
 class="st1"
 d="M 178.3 904.7 C 176.0 904.7 173.6 904.8 171.3 905.0 C 150.2 906.9 137.3 916.3 133.1 932.6 C 129.4 946.8 130.9 948.9 145.2 948.9 C 148.8 948.9 152.4 948.7 156.0 948.9 C 160.4 949.2 162.3 947.7 162.5 942.9 C 163.0 932.9 168.5 928.1 178.7 928.2 C 187.1 928.4 191.2 933.1 192.4 940.7 C 193.9 950.6 189.0 956.1 179.5 958.6 C 169.1 961.4 158.5 963.8 148.6 968.0 C 125.7 977.6 119.9 1017.4 138.5 1034.1 C 142.9 1038.0 148.2 1040.4 154.1 1040.7 C 168.7 1041.5 183.0 1041.1 191.5 1027.3 C 195.9 1030.6 192.6 1039.0 201.3 1038.7 C 210.2 1038.4 219.2 1038.6 228.9 1038.6 C 225.1 1028.7 225.0 1019.4 225.1 1010.0 C 225.2 988.1 225.4 966.1 225.1 944.2 C 224.8 922.2 217.0 911.2 199.2 907.1 C 192.4 905.5 185.4 904.6 178.3 904.7 z M 192.6 975.1 C 192.6 984.2 193.0 992.0 192.5 999.8 C 191.9 1010.1 185.0 1017.2 175.0 1018.5 C 167.8 1019.5 163.5 1016.0 161.2 1009.4 C 157.6 998.7 161.0 987.8 169.9 983.2 C 173.3 981.5 177.3 980.9 181.0 979.6 C 184.3 978.4 187.6 977.1 192.6 975.1 z "
 transform="matrix(0.4731544,0,0,0.4731544,441.05593,276.66)" />
		<path
 id="path28"
 style="stroke-width:2.11348"
 class="st1"
 d="M 576.3 904.7 C 568.7 904.6 561.0 905.8 553.4 908.1 C 541.0 911.9 533.3 920.2 529.9 932.6 C 526.1 946.8 527.7 948.9 541.9 948.9 C 545.1 948.9 548.4 948.7 551.6 948.9 C 556.7 949.4 559.5 948.5 559.4 942.2 C 559.3 935.0 563.4 929.7 570.8 928.5 C 578.9 927.2 585.9 929.0 588.7 938.2 C 591.4 947.2 587.7 955.0 578.7 957.9 C 567.4 961.5 555.6 963.2 544.8 968.3 C 521.8 979.0 516.7 1018.0 536.0 1034.5 C 540.3 1038.2 545.1 1040.4 550.7 1040.7 C 565.2 1041.5 579.5 1041.2 590.5 1024.0 C 589.1 1039.6 597.3 1039.2 605.8 1038.7 C 611.9 1038.4 618.1 1038.6 625.8 1038.6 C 621.5 1028.1 622.0 1018.0 622.0 1007.9 C 622.0 985.3 622.2 962.6 621.5 939.9 C 621.0 921.9 614.3 912.8 599.1 908.2 C 591.6 905.9 584.0 904.7 576.3 904.7 z M 589.5 975.2 L 589.5 998.5 C 589.5 998.9 589.5 999.3 589.4 999.6 C 588.5 1010.2 581.1 1018.0 570.9 1018.7 C 563.5 1019.3 559.7 1015.0 557.8 1008.4 C 554.6 997.7 557.9 987.4 566.8 983.3 C 573.6 980.2 580.9 978.2 589.5 975.2 z "
 transform="matrix(0.4731544,0,0,0.4731544,441.05593,276.66)" />
		<path
 id="path30"
 style="stroke-width:2.11348"
 class="st1"
 d="M 1134.1 904.5 C 1126.8 904.5 1119.5 905.5 1112.2 907.5 C 1100.1 910.9 1091.4 918.8 1087.9 931.3 C 1083.3 947.8 1084.2 948.8 1101.2 948.8 C 1103.7 948.8 1106.2 948.6 1108.7 948.9 C 1113.8 949.4 1116.3 948.2 1116.9 942.2 C 1117.8 932.5 1123.7 927.6 1133.8 928.2 C 1141.6 928.8 1145.6 932.9 1146.6 940.3 C 1147.9 950.1 1143.9 956.0 1134.2 958.6 C 1123.4 961.4 1112.4 964.0 1102.3 968.4 C 1079.7 978.2 1074.7 1019.2 1093.8 1034.7 C 1098.6 1038.7 1104.3 1040.5 1110.7 1040.9 C 1124.8 1041.6 1137.7 1039.5 1148.0 1025.1 C 1147.9 1036.9 1152.6 1039.6 1161.0 1038.8 C 1168.1 1038.1 1175.4 1038.6 1183.5 1038.6 C 1179.7 1028.3 1179.1 1018.4 1179.1 1008.3 C 1179.2 984.9 1179.4 961.4 1178.8 938.0 C 1178.4 921.3 1171.2 912.3 1156.0 907.8 C 1148.8 905.7 1141.5 904.6 1134.1 904.5 z M 1146.6 975.3 C 1146.6 984.8 1146.7 992.6 1146.6 1000.5 C 1146.5 1002.6 1146.1 1004.8 1145.4 1006.8 C 1141.9 1015.1 1134.8 1018.6 1126.5 1018.6 C 1120.0 1018.6 1116.6 1013.8 1115.3 1007.4 C 1113.3 997.9 1114.2 989.0 1123.5 984.0 C 1130.3 980.3 1138.0 978.5 1146.6 975.3 z "
 transform="matrix(0.4731544,0,0,0.4731544,441.05593,276.66)" />
		<path
 id="path32"
 style="stroke-width:2.11348"
 class="st1"
 d="M 1668.3 903.4 C 1644.9 903.3 1622.9 919.7 1618.5 945.1 C 1615.8 960.5 1616.0 976.0 1616.9 991.4 C 1619.2 1029.2 1640.9 1046.3 1678.4 1040.4 C 1699.6 1037.0 1713.0 1021.9 1713.7 1000.5 C 1713.8 998.1 1715.1 994.6 1711.3 994.5 C 1702.7 994.2 1693.8 993.4 1685.5 995.0 C 1681.6 995.8 1682.4 1003.1 1680.9 1007.4 C 1678.5 1014.1 1674.0 1018.7 1666.7 1018.6 C 1659.8 1018.6 1655.7 1014.1 1653.3 1007.9 C 1650.4 1000.3 1650.4 992.4 1650.0 984.5 C 1649.8 979.8 1651.8 978.2 1656.4 978.3 C 1665.4 978.6 1674.5 978.4 1683.5 978.4 C 1720.9 978.4 1721.0 978.4 1713.7 940.9 C 1712.6 935.2 1710.6 929.8 1707.8 924.7 C 1704.8 919.1 1700.7 914.8 1695.4 911.4 C 1686.8 906.0 1677.4 903.4 1668.3 903.4 z M 1667.3 928.3 C 1677.9 928.4 1684.4 937.3 1683.2 953.0 C 1682.3 965.2 1671.6 954.8 1666.6 959.5 C 1661.9 954.7 1650.8 965.6 1650.4 952.4 C 1649.9 937.2 1656.9 928.2 1667.3 928.3 z "
 transform="matrix(0.4731544,0,0,0.4731544,441.05593,276.66)" />
		<path
 id="path34"
 style="stroke-width:2.11348"
 class="st2"
 d="M 869.7 904.8 C 843.7 904.9 827.1 916.2 821.9 939.3 C 816.7 962.3 816.8 985.9 821.8 1009.0 C 825.4 1025.9 836.5 1036.8 854.0 1039.7 C 860.7 1040.8 867.7 1040.8 874.5 1040.7 C 898.8 1040.1 914.7 1024.1 915.9 999.8 C 916.1 996.2 915.6 994.2 911.7 994.2 C 903.8 994.3 895.5 993.1 888.0 994.9 C 882.4 996.3 884.5 1004.3 882.3 1009.0 C 879.5 1014.9 875.2 1018.4 869.1 1018.6 C 862.7 1018.8 858.4 1015.1 855.9 1009.2 C 853.2 1002.8 852.7 996.0 851.9 989.2 C 851.1 981.3 853.0 977.2 862.2 978.2 C 869.7 979.1 877.3 978.4 884.9 978.4 C 923.3 978.4 923.3 978.4 915.8 941.4 C 911.0 917.3 896.8 905.4 872.2 904.8 C 871.4 904.8 870.5 904.8 869.7 904.8 z M 869.1 928.3 C 879.8 928.2 886.1 936.7 885.0 953.5 C 884.3 964.3 874.3 955.6 869.1 959.4 C 864.4 954.3 852.7 966.3 852.2 952.1 C 851.6 938.0 858.8 928.6 868.6 928.3 C 868.8 928.3 869.0 928.3 869.1 928.3 z "
 transform="matrix(0.4731544,0,0,0.4731544,441.05593,276.66)" />
		<path
 id="path36"
 d="m 577.7,769.1 c -3.5,0.3 -7.2,-0.2 -10.8,-1.2 -7.7,-2.3 -12.7,-10.7 -11.1,-18.5 0.2,-0.9 0.3,-1.7 1.4,-1.7 3.9,-0.0 7.9,-0.2 11.8,0.1 2.2,0.2 1.1,2.5 1.4,3.8 1.2,6.0 7.1,8.9 12.5,6.0 4.5,-2.5 4.6,-9.2 -0.2,-11.7 -4.2,-2.2 -8.8,-3.6 -13.2,-5.3 -9.7,-3.7 -14.1,-10 -13.2,-18.8 0.9,-9.1 6.3,-14.4 16.2,-16.4 5.1,-1.0 10.2,-0.8 15.2,0.4 8,1.8 12.7,8.3 12.5,16.4 -0.1,2.1 -0.5,3.1 -2.8,2.9 -1.9,-0.2 -3.8,-0.2 -5.6,-0.0 -3.6,0.3 -6.3,0.1 -6.7,-4.7 -0.3,-3.7 -3.4,-4.8 -6.8,-4.5 -3.2,0.3 -5.7,1.6 -6.4,4.9 -0.8,3.5 0.7,6.1 3.9,7.4 3.9,1.6 8.0,2.8 12.0,4.2 11.2,4.0 15.0,10.2 13.4,22.0 -1.2,8.3 -8.8,14.2 -18.9,14.7 -1.4,0.0 -2.7,-0.0 -4.4,-0.0 z"
 class="st2" />
		<path
 id="path38"
 d="m 1150.5,738.9 c 0,-5.6 -0.2,-11.2 0.1,-16.9 0.1,-3.3 -0.4,-5.2 -4.3,-4.6 -6.0,0.9 -3.5,-3.7 -4.0,-6.3 -0.6,-3.2 0.2,-5.4 4.1,-4.6 3.5,0.7 4.5,-1.1 4.1,-4.3 -0.1,-0.5 -0.0,-1.0 -0.0,-1.5 0.0,-12.7 0,-12.6 13.0,-11.7 2.2,0.2 3.0,0.8 2.9,3.0 -0.1,2.2 0.1,4.4 -0.1,6.6 -0.5,5.0 -0.4,9.4 6.8,7.9 0.8,-0.2 2.1,-0.2 2.1,0.8 0.2,3.0 0.7,6.2 -0.1,9.1 -0.5,2.1 -3.3,1.0 -5.0,0.9 -2.8,-0.1 -3.9,0.7 -3.9,3.7 0.2,9.9 0.1,19.8 0.1,29.6 -0.0,4.0 1.5,6.8 6.0,6.2 3.1,-0.4 3.3,1.0 3.3,3.4 0.1,7.6 0.2,7.6 -7.3,7.9 -2.2,0.1 -4.4,0.0 -6.7,-0.1 -8.1,-0.4 -11.0,-3.3 -11.2,-11.4 -0.2,-6.0 -0.0,-11.9 -0.0,-17.9 z"
 class="st2" />
		<path
 id="path40"
 d="m 924.8,738.9 c 0,-5.6 -0.2,-11.2 0.1,-16.9 0.2,-3.5 -0.7,-5.1 -4.5,-4.6 -5.6,0.8 -3.5,-3.5 -3.8,-6.0 -0.3,-2.8 -0.6,-5.7 3.9,-4.9 3.8,0.7 4.8,-1.2 4.3,-4.6 -0.1,-0.3 -0.0,-0.7 -0.0,-1.0 0.0,-12.0 0.0,-11.8 11.8,-11.9 3.3,-0.0 4.7,0.7 4.3,4.2 -0.2,2.0 0.2,4.1 -0.1,6.1 -0.6,5.0 0.2,8.4 6.5,7.2 2.1,-0.4 2.6,0.9 2.5,2.7 -0.1,1.5 -0.2,3.1 0.0,4.6 0.4,3.0 -1.0,4.1 -3.8,3.6 -4.4,-0.8 -5.4,1.3 -5.2,5.4 0.3,9.2 0.2,18.4 0.1,27.6 -0.0,4.3 1.3,7.1 6.1,6.5 2.5,-0.3 3.0,0.7 2.8,2.8 -0.1,1.9 -0.2,3.8 0.0,5.6 0.2,2.4 -0.8,2.9 -3.0,2.8 -3.9,-0.1 -7.8,0.1 -11.8,-0.1 -6.7,-0.4 -9.6,-3.1 -10,-9.8 -0.3,-6.5 -0.1,-12.9 -0.1,-19.4 -0.1,-0.0 -0.1,-0.0 -0.2,-0.0 z"
 class="st2" />
		<path
 id="path42"
 d="m 1108.7,727.1 c 0,12.4 -0.1,24.9 0.1,37.3 0.0,2.9 -0.8,3.7 -3.7,3.7 -12.1,0.2 -12.1,0.3 -12.1,-11.6 0,-21.8 0.1,-43.7 -0.1,-65.5 -0.0,-3.7 0.8,-5.0 4.7,-4.9 11.1,0.2 11.1,0.0 11.1,11.2 0,9.9 0,19.8 0,29.7 z"
 class="st1" />
		<path
 id="path44"
 d="m 898.4,713.7 c 3.9,-4.8 7.4,-8.2 12.8,-8.8 0.7,-0.1 1.4,-0.1 2.0,-0.1 4.3,-0.1 3,3.5 2.5,5.1 -0.9,3.4 3.4,9.2 -2.5,10.0 -11.8,1.8 -13.9,3.5 -13.9,15.4 0,9.7 -0.1,19.4 0.1,29.1 0.0,2.8 -0.6,3.7 -3.6,3.8 -12.4,0.2 -12.4,0.3 -12.4,-11.9 0,-15 0.1,-30.0 -0.1,-45.0 -0.1,-3.6 0.6,-5.6 4.7,-4.8 1.2,0.2 2.4,0.1 3.6,0.0 4.6,-0.3 9.2,-0.7 6.8,7.2 z"
 class="st3" />
		<path
 id="path46"
 d="m 1181.3,736.9 c 0,-8.8 0.1,-17.7 -0.1,-26.6 -0.0,-2.6 0.3,-3.8 3.5,-3.9 12.8,-0.2 12.8,-0.4 12.8,12.5 0,15.0 -0.1,30.0 0.1,44.9 0.0,3.1 -0.5,4.4 -4.1,4.4 -12.2,-0.0 -12.2,0.1 -12.2,-11.9 0.0,-6.5 0.0,-12.9 0.0,-19.4 z"
 class="st2" />
		<path
 id="path48"
 d="m 803.9,736.9 c 0,-8.7 0.2,-17.4 -0.1,-26.1 -0.1,-3.7 1.1,-4.5 4.6,-4.4 11.2,0.1 11.2,0 11.2,11.4 0,15.2 -0.1,30.3 0.1,45.5 0.0,3.5 -0.3,5.0 -4.5,4.9 -11.2,-0.3 -11.2,-0.1 -11.2,-11.4 -0.0,-6.6 -0.0,-13.3 -0.0,-19.9 z"
 class="st1" />
		<path
 id="path50"
 d="m 1189.9,685.3 c 7.7,0 7.7,0 7.7,6.8 0,7.2 0,7.2 -7.9,7.2 -8.4,0 -8,-0.0 -8.5,-8.1 -0.3,-5.1 1.3,-6.8 6.1,-5.9 0.8,0.1 1.7,0.0 2.6,0.0 z"
 class="st4" />
		<path
 id="path52"
 d="m 811.6,699.3 c -7.8,0 -7.5,-0.0 -7.9,-7.7 -0.3,-5.0 0.9,-6.7 6.3,-6.4 9.7,0.5 9.5,0.1 9.6,9.7 0.1,3.5 -0.8,5.1 -4.5,4.5 -1.2,-0.2 -2.4,-0.0 -3.6,-0.0 z"
 class="st5" />
		<path
 id="path54"
 d="m 677.2,291.0 c 30,0 59.2,0.1 88.4,-0.1 3.3,-0.0 3.8,1.9 4.8,4.1 31.4,70.5 62.7,140.9 94.1,211.3 9.9,22.2 19.7,44.4 29.7,66.6 9.2,20.4 25.1,31.8 47.5,32.0 22.7,0.2 39.0,-10.9 48.4,-31.5 13.7,-30.2 27.0,-60.6 40.5,-90.9 0.4,-0.9 0.9,-1.8 1.6,-3.4 5.9,13.2 11.5,25.8 17.2,38.5 8.9,20.1 17.8,40.1 26.9,60.1 1.3,2.9 1.3,5.2 -0.0,8.1 -4.5,9.7 -8.8,19.5 -13.1,29.4 -4.7,10.7 -11.8,16.1 -24.5,16.0 -64.9,-0.5 -129.8,-0.4 -194.8,-0.1 -10.9,0.1 -17.4,-4.9 -21.5,-14.0 -7.9,-17.3 -15.6,-34.7 -23.3,-52.1 -40.0,-89.9 -80.1,-179.9 -120.1,-269.8 -0.5,-1.2 -1,-2.5 -1.8,-4.4 z"
 class="st0" />
		<path
 id="path58"
 d="m 1207.5,291.0 c -22.7,51.0 -45.1,101.3 -67.8,152.2 -7.9,-17.8 -15.6,-35.0 -23.3,-52.2 -7.0,-15.7 -14.0,-31.4 -21.0,-47.0 -1.0,-2.3 -1.3,-4.2 -0.2,-6.7 6.5,-14.2 12.8,-28.5 19.1,-42.8 0.8,-1.9 1.3,-3.5 4.2,-3.5 29.4,0.1 58.7,0.1 89.0,0.1 z"
 class="st0" />
	</g>
</g>
</svg>
